<?xml version="1.0" standalone="no"?>
<!DOCTYPE svg PUBLIC "-//W3C//DTD SVG 20010904//EN"
 "http://www.w3.org/TR/2001/REC-SVG-20010904/DTD/svg10.dtd">
<svg version="1.0" xmlns="http://www.w3.org/2000/svg"
 width="500.000000pt" height="500.000000pt" viewBox="0 0 500.000000 500.000000"
 preserveAspectRatio="xMidYMid meet">

<g transform="translate(0.000000,500.000000) scale(0.100000,-0.100000)"
fill="#000000" stroke="none">
<path d="M506 3230 c-16 -5 -40 -19 -54 -32 -51 -47 -52 -58 -52 -477 0 -403
2 -425 43 -469 19 -20 21 -36 23 -140 1 -64 2 -126 2 -137 1 -11 -1 -62 -4
-112 -5 -89 -4 -94 20 -118 l25 -25 202 0 c185 0 206 2 246 21 l43 21 43 -21
c41 -20 59 -21 343 -21 258 0 303 2 322 16 21 15 25 15 41 0 16 -14 133 -16
1237 -16 1041 1 1222 3 1238 15 16 12 21 12 40 0 15 -11 49 -15 124 -15 96 0
105 2 127 24 l25 25 -2 230 -1 229 26 31 c14 18 29 46 32 64 3 18 5 208 3 424
-3 377 -4 393 -24 419 -11 15 -32 37 -47 47 -25 20 -48 20 -1193 19 -1151 -2
-1216 -3 -1248 -33 -5 -5 -25 1 -45 14 -36 22 -39 22 -442 21 -388 0 -408 -1
-440 -20 -33 -20 -35 -20 -77 -2 -36 16 -77 20 -295 23 -144 3 -264 1 -281 -5z
m539 -139 c48 -22 79 -54 100 -103 12 -30 15 -82 15 -270 0 -260 -6 -288 -69
-341 -52 -43 -88 -48 -331 -45 l-225 3 -3 375 c-1 206 0 381 3 387 3 10 60 13
237 13 205 0 238 -3 273 -19z m943 -90 c2 -65 -1 -108 -8 -115 -7 -7 -96 -13
-243 -16 -197 -4 -232 -7 -232 -20 0 -13 34 -16 220 -20 121 -4 221 -7 223 -8
1 -1 1 -48 0 -104 l-3 -103 -215 -3 c-118 -1 -219 -7 -224 -12 -6 -6 -4 -15 3
-24 11 -13 52 -16 245 -18 l231 -3 0 -110 0 -110 -385 0 -385 0 -3 375 c-1
206 0 381 3 388 3 10 86 12 387 10 l383 -3 3 -104z m677 -21 l0 -125 -145 -2
c-209 -4 -190 9 -190 -132 0 -94 3 -120 14 -124 26 -10 35 17 38 109 l3 89
140 0 140 0 0 -230 0 -230 -235 -3 c-232 -2 -234 -2 -285 23 -30 14 -60 39
-75 61 -25 37 -25 40 -28 278 -2 133 0 256 3 274 8 42 59 100 110 123 36 17
65 18 275 16 l235 -2 0 -125z m833 19 c2 -80 -1 -109 -11 -117 -9 -8 -91 -13
-243 -14 -196 -3 -229 -5 -229 -18 0 -13 34 -16 220 -20 121 -4 221 -7 223 -8
1 -1 1 -48 0 -104 l-3 -103 -215 -3 c-118 -1 -219 -7 -224 -12 -6 -6 -4 -15 3
-24 11 -13 52 -16 245 -18 l231 -3 0 -110 0 -110 -385 0 -385 0 -3 375 c-1
206 0 381 3 388 3 10 86 12 387 10 l383 -3 3 -106z m632 -131 c3 -130 8 -240
12 -243 4 -4 14 -5 22 -2 13 5 16 42 18 244 l3 238 135 3 c118 2 136 0 147
-15 19 -24 19 -722 1 -746 -12 -16 -39 -17 -293 -15 l-280 3 -5 235 c-5 227
-6 235 -25 235 -19 0 -20 -8 -25 -235 l-5 -235 -140 0 -140 0 -3 375 c-1 206
0 381 3 388 3 10 66 12 287 10 l283 -3 5 -237z m-3142 -685 c3 -58 1 -63 -20
-67 -13 -3 -32 -5 -43 -4 -81 4 -225 -4 -225 -12 0 -6 39 -10 98 -10 80 0 103
-4 130 -20 45 -28 66 -80 59 -151 -10 -117 -35 -129 -276 -129 l-181 0 0 65 0
65 140 0 c118 0 140 2 140 15 0 12 -17 15 -95 15 -109 0 -146 13 -170 60 -19
37 -20 142 -1 179 28 54 61 61 261 58 l180 -2 3 -62z m477 -13 l0 -75 -138 -3
-138 -3 3 -72 3 -72 138 -3 137 -3 0 -75 0 -75 -195 3 -195 3 -32 33 -33 32
-3 138 c-4 159 6 199 60 232 30 19 47 20 213 18 l180 -3 0 -75z m444 65 c54
-27 70 -137 26 -180 -13 -14 -31 -25 -40 -25 -25 0 -17 -17 14 -28 42 -15 52
-42 49 -130 l-3 -77 -85 0 -85 0 -3 78 -3 77 -54 0 -55 0 0 -80 0 -80 -85 0
-85 0 0 223 c0 123 3 227 7 230 3 4 89 7 190 7 142 0 190 -3 212 -15z m529
-57 l3 -68 -141 0 c-118 0 -140 -2 -140 -15 0 -13 21 -15 130 -15 l130 0 0
-59 c0 -73 -1 -73 -138 -71 -118 3 -122 2 -122 -10 0 -5 57 -11 138 -12 l137
-3 3 -68 3 -67 -228 2 -228 3 -3 215 c-1 118 0 220 3 227 3 11 52 13 227 11
l223 -3 3 -67z m490 0 l3 -67 -143 -3 c-183 -4 -191 -21 -13 -28 l130 -5 3
-57 c3 -55 3 -56 -28 -63 -16 -4 -69 -6 -118 -5 -106 3 -112 2 -112 -10 0 -5
57 -11 138 -12 l137 -3 3 -68 3 -67 -228 2 -228 3 -3 215 c-1 118 0 220 3 227
3 11 52 13 227 11 l223 -3 3 -67z m372 -73 c3 -83 9 -140 15 -140 6 0 12 57
15 140 l5 140 80 0 80 0 3 -227 2 -228 -170 0 -169 0 -3 137 c-2 96 -7 138
-15 140 -9 3 -13 -30 -15 -134 l-3 -138 -82 -3 -83 -3 0 231 0 230 168 -2 167
-3 5 -140z m685 75 l0 -65 -140 -5 c-177 -6 -183 -24 -10 -28 l126 -3 -3 -62
-3 -62 -110 -2 c-150 -2 -145 -2 -145 -13 0 -5 59 -11 143 -12 l142 -3 0 -65
0 -65 -227 -3 -228 -2 0 223 c0 123 3 227 7 231 4 3 106 5 227 4 l221 -3 0
-65z m461 36 c22 -25 25 -36 22 -95 -3 -64 -4 -67 -35 -81 -35 -16 -38 -33 -7
-38 35 -6 44 -32 44 -124 l0 -88 -85 0 -85 0 0 80 0 80 -55 0 -54 0 -3 -77 -3
-78 -85 0 -85 0 -3 215 c-1 118 0 221 3 228 4 10 45 13 206 10 l201 -3 24 -29z"/>
<path d="M827 2874 c-4 -4 -7 -77 -7 -161 0 -154 0 -154 23 -151 22 3 22 5 22
158 0 132 -2 155 -15 158 -9 1 -19 0 -23 -4z"/>
<path d="M1670 2100 c0 -10 59 -24 86 -18 9 1 19 9 22 16 3 9 -12 12 -52 12
-31 0 -56 -4 -56 -10z"/>
<path d="M4192 2098 c6 -17 32 -21 74 -13 53 10 40 25 -22 25 -40 0 -55 -3
-52 -12z"/>
</g>
</svg>
